<?xml version="1.0" encoding="UTF-8"?>
<svg width="124px" height="32px" viewBox="0 0 124 32" version="1.1" xmlns="http://www.w3.org/2000/svg" xmlns:xlink="http://www.w3.org/1999/xlink">
    <title>Group 21 Copy 5</title>
    <defs>
        <polygon id="path-1" points="0 0.1766907 19.6678712 0.1766907 19.6678712 30.132 0 30.132"></polygon>
        <polygon id="path-3" points="0.220567962 0.2182617 15.052329 0.2182617 15.052329 14.3356617 0.220567962 14.3356617"></polygon>
    </defs>
    <g id="Page-1" stroke="none" stroke-width="1" fill="none" fill-rule="evenodd">
        <g id="main-" transform="translate(-375.000000, -22.000000)">
            <g id="Group-21-Copy-5" transform="translate(375.000000, 22.000000)">
                <g id="Group-3" transform="translate(0.000000, 0.102393)">
                    <mask id="mask-2" fill="white">
                        <use xlink:href="#path-1"></use>
                    </mask>
                    <g id="Clip-2"></g>
                    <path d="M0.304389,28.2837087 C0.113274,28.1562057 0.012555,28.0178217 0.001674,27.8693937 C-0.008928,27.7204077 0.028458,27.5717007 0.113274,27.4232727 C0.197811,27.2530827 0.325314,27.0831717 0.495783,26.9135397 C0.665415,26.7645537 0.867132,26.3876247 1.100934,25.7819157 C1.334736,25.1764857 1.584162,24.4435527 1.850049,23.5831167 C2.115378,22.7226807 2.380707,21.7827297 2.646873,20.7629847 C2.912202,19.7432397 3.161628,18.7449777 3.395709,17.7676407 C3.629232,16.7905827 3.83067,15.8871807 4.001139,15.0588297 C4.170771,14.2301997 4.298274,13.5720387 4.383369,13.0832307 C4.489389,12.4884027 4.606569,11.8400067 4.734072,11.1391587 C4.840092,10.5231267 4.956993,9.8060967 5.084496,8.9880687 C5.211999,8.1703197 5.328621,7.2621747 5.435199,6.2633547 L7.984422,5.1161067 C8.345448,4.9464747 8.600454,4.9835817 8.74944,5.2277067 C8.897589,5.4721107 8.897589,5.9765427 8.74944,6.7412817 C8.685549,7.1237907 8.568648,7.7454027 8.398737,8.6058387 C8.228547,9.4659957 8.032131,10.4115267 7.80921,11.4418737 C7.586289,12.4724997 7.352208,13.5243297 7.108083,14.5965267 C6.863679,15.6695607 6.624576,16.6201137 6.391053,17.4487437 C6.178455,18.2349657 5.934051,19.1378097 5.65812,20.1575547 C5.169312,21.8996307 4.489389,24.2789427 3.61863,27.2957697 C3.915765,27.8057817 4.468185,28.0605087 5.275611,28.0605087 C6.168132,28.0605087 7.20378,27.7204077 8.382834,27.0407637 C9.561888,26.3605617 10.703556,25.3408167 11.808396,23.9815287 C12.912957,22.6222407 13.884993,20.9175507 14.724504,18.8669007 C15.563457,16.8168087 16.089372,14.4213147 16.301691,11.6806977 C16.40799,10.1939067 16.333776,8.8873497 16.07877,7.7610267 C15.823764,6.6352617 15.435954,5.6900097 14.915619,4.9249917 C14.394726,4.1599737 13.75749,3.5863497 13.003632,3.2041197 C12.249216,2.8216107 11.415285,2.6304957 10.501839,2.6304957 C8.355771,2.6304957 6.136047,3.5227377 3.84183,5.3072217 L3.682242,2.6623017 C4.234662,2.0465487 4.866597,1.5739227 5.578326,1.2444237 C6.290055,0.9152037 6.953796,0.6657777 7.570107,0.4953087 C8.292159,0.3041937 9.025092,0.1981737 9.768906,0.1766907 C11.128473,0.1766907 12.44061,0.4369977 13.704759,0.9576117 C14.96835,1.4782257 16.062867,2.2694697 16.986915,3.3313437 C17.910963,4.3940547 18.617112,5.7271167 19.106199,7.3308087 C19.594728,8.9350587 19.76436,10.8099387 19.615932,12.9557277 C19.530837,14.1880707 19.281411,15.4678437 18.867096,16.7953257 C18.452781,18.1233657 17.910963,19.4246217 17.241921,20.6990937 C16.572879,21.9741237 15.781077,23.1849837 14.86791,24.3322317 C13.954185,25.4792007 12.955644,26.4833217 11.872287,27.3437577 C10.78893,28.2041937 9.630522,28.8835587 8.398737,29.3829687 C7.166394,29.8820997 5.891643,30.1320837 4.574763,30.1320837 C4.170771,30.1106007 3.735252,30.0363867 3.268206,29.9088837 C2.864214,29.8023057 2.40777,29.6220717 1.897758,29.3673447 C1.388025,29.1123387 0.85653,28.7507547 0.304389,28.2837087" id="Fill-1" fill="#4739FF" mask="url(#mask-2)"></path>
                </g>
                <path d="M24.8741055,14.3644545 C24.8102145,14.5558485 24.7784085,14.7578445 24.7784085,14.9698845 C24.7784085,15.3102645 24.7993335,15.6659895 24.8422995,16.0376175 C24.8847075,16.4095245 24.9907275,16.7440455 25.1609175,17.0414595 C25.3308285,17.3391525 25.6014585,17.5885785 25.9736445,17.7900165 C26.3449935,17.9922915 26.8603065,18.0930105 27.5190255,18.0930105 C27.6250455,18.0930105 27.7313445,18.0879885 27.8379225,18.0771075 C27.9439425,18.0667845 28.0499625,18.0506025 28.1565405,18.0293985 C28.2201525,17.7531885 28.2784635,17.5034835 28.3317525,17.2802835 C28.3844835,17.0570835 28.4115465,16.8609465 28.4115465,16.6907565 C28.4536755,16.2876015 28.4536755,15.8730075 28.4115465,15.4480905 C28.3685805,15.0231735 28.2890655,14.6353635 28.1724435,14.2849395 C28.0552635,13.9342365 27.9065565,13.6474245 27.7263225,13.4245035 C27.5455305,13.2013035 27.3279105,13.0899825 27.0729045,13.0899825 C26.6691915,13.0899825 26.2811025,13.2013035 25.9097535,13.4245035 C25.5378465,13.6474245 25.1927235,13.9612995 24.8741055,14.3644545 M22.8346155,19.9731915 C22.8346155,20.3557005 22.8555405,20.7329085 22.8982275,21.1042575 C22.9406355,21.4761645 23.0257305,21.8053845 23.1532335,22.0921965 C23.2807365,22.3792875 23.4506475,22.6130895 23.6632455,22.7933235 C23.8752855,22.9741155 24.1517745,23.0642325 24.4915965,23.0642325 C24.8741055,23.0642325 25.2245295,22.9741155 25.5434265,22.7933235 C25.8620445,22.6130895 26.1488565,22.3792875 26.4035835,22.0921965 C26.6585895,21.8053845 26.8868115,21.4761645 27.0888075,21.1042575 C27.2905245,20.7329085 27.4660155,20.3450985 27.6147225,19.9411065 C27.4660155,19.9625895 27.3223305,19.9784925 27.1845045,19.9890945 C27.0461205,19.9999755 26.8921125,20.0049975 26.7224805,20.0049975 C25.9147755,20.0049975 25.2192285,19.7658945 24.6352815,19.2879675 C24.0504975,18.8100405 23.5993545,18.1995885 23.2807365,17.4554955 C23.1532335,17.9018955 23.0466555,18.3374145 22.9621185,18.7623315 C22.8770235,19.1872485 22.8346155,19.5906825 22.8346155,19.9731915 M30.2596425,19.2081735 C30.0470445,20.0158785 29.7602325,20.7697365 29.3992065,21.4708635 C29.0379015,22.1719905 28.6076835,22.7774205 28.1085525,23.2871535 C27.6091425,23.7974445 27.0461205,24.1955775 26.4197655,24.4823895 C25.7928525,24.7692015 25.1076285,24.9126075 24.3640935,24.9126075 C23.4927765,24.9126075 22.8078315,24.7265145 22.3089795,24.3548865 C21.8095695,23.9835375 21.4373835,23.5212345 21.1935375,22.9688145 C20.9491335,22.4163945 20.8004265,21.8109645 20.7471375,21.1522455 C20.6946855,20.4940845 20.6676225,19.8774945 20.6676225,19.3038705 C20.6676225,18.9007155 20.7153315,18.4543155 20.8110285,17.9655075 C20.9067255,17.4769785 21.0389715,16.9775685 21.2094405,16.4678355 C21.3793515,15.9578235 21.5966925,15.4480905 21.8628585,14.9380785 C22.1281875,14.4283455 22.4412255,13.9612995 22.8028095,13.5358245 C22.9303125,13.1747985 23.1264495,12.8564595 23.3923365,12.5799705 C23.6576655,12.3040395 23.9659605,12.0755385 24.3163845,11.8947465 C24.6670875,11.7145125 25.0440165,11.5761285 25.4477295,11.4804315 C25.8511635,11.3847345 26.2445535,11.3370255 26.6267835,11.3370255 C26.6906745,11.3370255 26.7487065,11.3479065 26.8022745,11.3691105 C26.8550055,11.3903145 26.9135955,11.4117975 26.9774865,11.4327225 C27.2531385,11.4539265 27.5988195,11.5602255 28.0131345,11.7513405 C28.4274495,11.9424555 28.8306045,12.2295465 29.2239945,12.6117765 C29.6168265,12.9942855 29.9516265,13.4775135 30.2278365,14.0617395 C30.5037675,14.6462445 30.6421515,15.3523935 30.6421515,16.1810235 C30.6421515,16.3512135 30.6312705,16.5582315 30.6103455,16.8023565 C30.5888625,17.0467605 30.5673795,17.2537785 30.5464545,17.4236895 C31.0349835,17.2325745 31.5449955,16.9987725 32.0762115,16.7225625 C32.6068695,16.4469105 33.1221825,16.1545185 33.6218715,15.8465025 C34.1207235,15.5384865 34.5827475,15.2248905 35.0079435,14.9059935 C35.4325815,14.5876545 35.7726825,14.3005635 36.0276885,14.0455575 C36.2397285,13.8547215 36.4205205,13.7484225 36.5695065,13.7272185 C36.7179345,13.7062935 36.8245125,13.7484225 36.8881245,13.8547215 C36.9520155,13.9612995 36.9623385,14.1094485 36.9199305,14.3005635 C36.8772435,14.4919575 36.7606215,14.7045555 36.5695065,14.9380785 C36.4629285,15.0655815 36.1920195,15.3205875 35.7567795,15.7028175 C35.3209815,16.0853265 34.8059475,16.4993625 34.2111195,16.9457625 C33.6162915,17.3918835 32.9684535,17.8274025 32.2673265,18.2523195 C31.5661995,18.6775155 30.8968785,18.9964125 30.2596425,19.2081735" id="Fill-4" fill="#4739FF"></path>
                <path d="M43.1341812,25.0718886 C42.6450942,25.0718886 42.2260362,24.9812136 41.8753332,24.8009796 C41.5246302,24.6201876 41.2431192,24.3810846 41.0308002,24.0839496 C40.8182022,23.7868146 40.6803762,23.4416916 40.6167642,23.0483016 C40.5528732,22.6554696 40.5737982,22.2355746 40.6803762,21.7894536 C40.7439882,21.4923186 40.8500082,21.0939066 40.9989942,20.5944966 C41.1474222,20.0956446 41.3017092,19.5538266 41.4610182,18.9693216 C41.6203272,18.3850956 41.7687552,17.8011486 41.9074182,17.2166436 C42.0452442,16.6324176 42.1353612,16.1012016 42.1780482,15.6232746 C42.2204562,15.1453476 42.1989732,14.7525156 42.1144362,14.4439416 C42.0293412,14.1364836 41.8485492,13.9821966 41.5726182,13.9821966 C41.2325172,13.9821966 40.8820932,14.0935176 40.5210672,14.3167176 C40.1594832,14.5396386 39.7928772,14.8426326 39.4215282,15.2248626 C39.0496212,15.6073716 38.6777142,16.0484706 38.3060862,16.5473226 C37.9341792,17.0467326 37.5678522,17.5620456 37.2068262,18.0929826 C37.0157112,18.8153136 36.8564022,19.4472486 36.7288992,19.9890666 C36.6013962,20.5308846 36.4897962,21.0199716 36.3940992,21.4549326 C36.2986812,21.8907306 36.2080062,22.2729606 36.1234692,22.6021806 C36.0380952,22.9316796 35.9638812,23.2449966 35.9002692,23.5424106 C35.8363782,23.7547296 35.6452632,23.9617476 35.3266452,24.1637436 C35.0080272,24.3654606 34.6679262,24.5303496 34.3069002,24.6575736 C33.9453162,24.7850766 33.6325572,24.8486886 33.3666702,24.8486886 C33.1013412,24.8486886 32.9900202,24.7529916 33.0321492,24.5621556 C33.0536322,24.4346526 33.1228242,24.1475616 33.2394462,23.7017196 C33.3563472,23.2553196 33.4941732,22.7294046 33.6537612,22.1242536 C33.8127912,21.5188236 33.9774012,20.8762866 34.1475912,20.1960846 C34.3172232,19.5164406 34.4768112,18.8688816 34.6255182,18.2522916 C34.7315382,17.7640416 34.8487182,17.2219446 34.9762212,16.6268376 C35.0822412,16.1171046 35.2150452,15.5225556 35.3746332,14.8426326 C35.5336632,14.1627096 35.7194772,13.4191746 35.9320752,12.6117486 C36.0805032,12.4842456 36.2347902,12.3835266 36.3940992,12.3090336 C36.5536872,12.2348196 36.7177392,12.1765086 36.8882082,12.1338216 C37.0578402,12.0699306 37.2386322,12.0278016 37.4300262,12.0063186 C37.5996582,12.0063186 37.7692902,12.0171996 37.9397592,12.0381246 C38.0881872,12.0593286 38.2424742,12.0969936 38.4017832,12.1497246 C38.5610922,12.2030136 38.7044982,12.2825286 38.8320012,12.3888276 C38.7683892,12.5375346 38.6936172,12.7445526 38.6090802,13.0101606 C38.5239852,13.2760476 38.4386112,13.5572796 38.3540742,13.8546936 C38.2689792,14.1947946 38.1629592,14.5452186 38.0354562,14.9059656 C38.3111082,14.5237356 38.6249832,14.1364836 38.9754072,13.7430936 C39.3261102,13.3499826 39.7083402,12.9942576 40.1226552,12.6753606 C40.5369702,12.3570216 40.9777902,12.0969936 41.4451152,11.8949976 C41.9121612,11.6930016 42.3900882,11.5920036 42.8791752,11.5920036 C43.2826092,11.5920036 43.6439142,11.7089046 43.9628112,11.9424276 C44.2814292,12.1765086 44.5308552,12.5001486 44.7116472,12.9144636 C44.8918812,13.3287786 44.9984592,13.8228876 45.0302652,14.3962326 C45.0620712,14.9698566 44.9825562,15.5967696 44.7911622,16.2766926 L44.4407382,17.6786676 C44.3341602,18.1247886 44.2016352,18.6504246 44.0423262,19.2561336 C43.8830172,19.8615636 43.6863222,20.5258626 43.4527992,21.2479146 C43.3252962,21.7155186 43.2775872,22.1192316 43.3093932,22.4587746 C43.3411992,22.7988756 43.5484962,22.9687866 43.9307262,22.9687866 C44.3132352,22.9687866 44.7961842,22.7349846 45.3806892,22.2673806 C45.9649152,21.8003346 46.5544422,21.2373126 47.1495492,20.5785936 C47.7438192,19.9201536 48.3071202,19.2455316 48.8383362,18.5550066 C49.3692732,17.8647606 49.7729862,17.3073186 50.0494752,16.8821226 C50.2405902,16.6061916 50.4208242,16.4253996 50.5910142,16.3403046 C50.7609252,16.2554886 50.8937292,16.2446076 50.9894262,16.3084986 C51.0851232,16.3721106 51.1328322,16.5155166 51.1328322,16.7387166 C51.1328322,16.9616376 51.0477372,17.2434276 50.8778262,17.5829706 C50.7291192,17.8809426 50.5003392,18.2737746 50.1926022,18.7623036 C49.8845862,19.2511116 49.5179802,19.7714466 49.0933422,20.3235876 C48.6681462,20.8762866 48.2114232,21.4340076 47.7228942,21.9967506 C47.2340862,22.5597726 46.7240742,23.0697846 46.1934162,23.5262286 C45.6622002,23.9835096 45.1362852,24.3548586 44.6159502,24.6416706 C44.0950572,24.9284826 43.6012272,25.0718886 43.1341812,25.0718886" id="Fill-6" fill="#4739FF"></path>
                <path d="M55.7536023,19.3357602 C55.8596223,18.9111222 55.9871253,18.4114332 56.1361113,17.8380882 C56.2842603,17.2644642 56.4117633,16.7123232 56.5183413,16.1808282 C56.6243613,15.6501702 56.7041553,15.2090712 56.7574443,14.8583682 C56.8101753,14.5076652 56.7942723,14.3433342 56.7094563,14.3645382 C56.6028783,14.3860212 56.4865353,14.4178272 56.3590323,14.4599562 C56.2524543,14.5029222 56.1146283,14.5347282 55.9447173,14.5556532 C55.7745273,14.5768572 55.6046163,14.6089422 55.4347053,14.6513502 C55.6046163,14.3115282 55.7058933,14.0297382 55.7376993,13.8068172 C55.7695053,13.5838962 55.7745273,13.4084052 55.7536023,13.2809022 C55.7321193,13.1327532 55.6897113,13.0155732 55.6260993,12.9304782 C55.3920183,12.7390842 54.9832833,12.8936502 54.3993363,13.3925022 C53.8145523,13.8919122 53.1404883,14.8106592 52.3757493,16.1490222 C52.0568523,16.7017212 51.8018463,17.2912482 51.6107313,17.9176032 C51.4196163,18.5445162 51.2865333,19.1340432 51.2125983,19.6864632 C51.1378263,20.2388832 51.1219233,20.7221112 51.1646103,21.1361472 C51.2070183,21.5504622 51.2921133,21.8213712 51.4196163,21.9488742 C51.6531393,22.1829552 51.9184683,22.2942762 52.2161613,22.2833952 C52.5135753,22.2727932 52.8162903,22.1879772 53.1245853,22.0283892 C53.4323223,21.8690802 53.7403383,21.6620622 54.0486333,21.4070562 C54.3563703,21.1523292 54.6325803,20.8870002 54.8772633,20.6102322 C55.1211093,20.3345802 55.3233843,20.0795742 55.4826933,19.8454932 C55.6420023,19.6119702 55.7321193,19.4423382 55.7536023,19.3357602 M65.0906163,17.9337852 C64.7929233,18.3587022 64.4104143,18.8846172 63.9433683,19.5109722 C63.4760433,20.1378852 62.9925363,20.7647982 62.4934053,21.3911532 C61.9939953,22.0180662 61.5057453,22.5916902 61.0275393,23.1120252 C60.5496123,23.6326392 60.1512003,23.9992452 59.8325823,24.2115642 C59.6199843,24.3390672 59.3753013,24.4448082 59.0996493,24.5301822 C58.8231603,24.6147192 58.5419283,24.6680082 58.2551163,24.6892122 C57.9683043,24.7104162 57.6973953,24.6945132 57.4426683,24.6417822 C57.1876623,24.5882142 56.9644623,24.4983762 56.7733473,24.3708732 C56.5822323,24.2224452 56.4226443,24.0098472 56.2951413,23.7336372 C56.1888423,23.4998352 56.0881233,23.1915402 55.9924263,22.8093102 C55.8970083,22.4268012 55.8596223,21.9488742 55.8811053,21.3755292 C55.3710933,22.2250842 54.8080713,22.8785022 54.1920393,23.3352252 C53.5757283,23.7922272 52.9915023,24.1267482 52.4393613,24.3390672 C51.8018463,24.5725902 51.1646103,24.7104162 50.5273743,24.7531032 C50.2296813,24.7531032 49.9110633,24.6521052 49.5712413,24.4503882 C49.2311403,24.2486712 48.9443283,23.9300532 48.7108053,23.4942552 C48.4772823,23.0592942 48.3285753,22.4959932 48.2646843,21.8054682 C48.2010723,21.1152222 48.2861673,20.2918932 48.5196903,19.3357602 C48.8168253,18.0400842 49.2894513,16.8610302 49.9378473,15.7983192 C50.5856853,14.7364452 51.2921133,13.8283002 52.0568523,13.0738842 C52.8218703,12.3200262 53.5757283,11.7511452 54.3195423,11.3689152 C55.0627983,10.9864062 55.6788303,10.8167742 56.1679173,10.8589032 C56.7415413,10.9654812 57.2085873,11.1353922 57.5698923,11.3689152 C57.8673063,11.5815132 58.0640013,11.8948302 58.1596983,12.3088662 C58.2551163,12.7234602 58.0799043,13.2705792 57.6337833,13.9502232 C57.9309183,13.8866112 58.1803443,13.8439242 58.3826193,13.8227202 C58.5843363,13.8017952 58.7380653,13.7909142 58.8446433,13.7909142 C58.9721463,13.7909142 59.0566833,13.8017952 59.0996493,13.8227202 C59.1205743,13.8656862 59.1314553,13.9558032 59.1314553,14.0936292 C59.1314553,14.2320132 59.0996493,14.4817182 59.0360373,14.8427442 C58.9721463,15.2037702 58.8764493,15.6922992 58.7489463,16.3083312 C58.6217223,16.9246422 58.4512533,17.7214662 58.2392133,18.6985242 C58.1962473,18.8896392 58.1596983,19.0648512 58.1276133,19.2244392 C58.0958073,19.3834692 58.0640013,19.5427782 58.0321953,19.7020872 C58.0001103,19.8616752 57.9627243,20.0477682 57.9205953,20.2600872 C57.8776293,20.4724062 57.8248983,20.7377352 57.7612863,21.0566322 C57.7398033,21.2480262 57.7342233,21.4550442 57.7453833,21.6782442 C57.7557063,21.9008862 57.7930923,22.1084622 57.8567043,22.2992982 C57.9205953,22.4906922 58.0210353,22.6449792 58.1596983,22.7613222 C58.2975243,22.8785022 58.4942193,22.9368132 58.7489463,22.9368132 C58.9612653,22.9368132 59.2374753,22.8042882 59.5775763,22.5384012 C59.9171193,22.2727932 60.2787033,21.9329712 60.6612123,21.5186562 C61.0434423,21.1043412 61.4418543,20.6476182 61.8561693,20.1484872 C62.2704843,19.6493562 62.6577363,19.1661282 63.0193203,18.6985242 C63.3803463,18.2314782 63.7045443,17.8171632 63.9910773,17.4555792 C64.2781683,17.0945532 64.4851863,16.8292242 64.6126893,16.6587552 C64.7823213,16.4679192 64.9522323,16.3560402 65.1227013,16.3242342 C65.2923333,16.2924282 65.4198363,16.3404162 65.5049313,16.4679192 C65.5894683,16.5951432 65.6056503,16.7862582 65.5529193,17.0412642 C65.4996303,17.2962702 65.3456223,17.5939632 65.0906163,17.9337852" id="Fill-8" fill="#4739FF"></path>
                <path d="M74.7145818,16.2128295 C74.7993978,16.0853265 74.9109978,16.0058115 75.0491028,15.9740055 C75.1869288,15.9419205 75.2985288,15.9578235 75.3836238,16.0214355 C75.4684398,16.0853265 75.5164278,16.1919045 75.5273088,16.3403325 C75.5376318,16.4890395 75.4793208,16.6907565 75.3518178,16.9457625 C74.9269008,17.7531885 74.3691798,18.6242265 73.6789338,19.5588765 C72.9884088,20.4940845 72.2607768,21.3701445 71.4960378,22.1878935 C70.7312988,23.0062005 69.9872058,23.6808225 69.2654328,24.2114805 C68.5428228,24.7421385 67.9373928,25.0080255 67.4488638,25.0080255 C66.7477368,25.0080255 66.1632318,24.8696415 65.6961858,24.5939895 C65.2285818,24.3175005 64.8622548,23.9779575 64.5966468,23.5742445 C64.3307598,23.1705315 64.1452248,22.7294325 64.0389258,22.2517845 C63.9323478,21.7738575 63.9005418,21.3330375 63.9435078,20.9290455 C63.9644328,20.5897815 64.0389258,19.9784925 64.1664288,19.0968525 C64.2939318,18.2154915 64.4638428,17.1954675 64.6764408,16.0376175 C64.8884808,14.8800465 65.1275838,13.6371015 65.3934708,12.3090615 C65.6587998,10.9815795 65.9400318,9.7012485 66.2380038,8.4689055 C65.8764198,8.5115925 65.5153938,8.5542795 65.1543678,8.5964085 C64.7927838,8.6390955 64.4638428,8.6602995 64.1664288,8.6602995 C63.4862268,8.6602995 62.8439688,8.5807845 62.2385388,8.4211965 C61.6331088,8.2618875 61.1819658,8.1078795 60.8842728,7.9591725 C60.7143618,7.8743565 60.6401478,7.7521545 60.6610728,7.5928455 C60.6825558,7.4332575 60.7464468,7.2739485 60.8521878,7.1146395 C60.9587658,6.9553305 61.0912908,6.8172255 61.2505998,6.7003245 C61.4099088,6.5837025 61.5533148,6.5251125 61.6808178,6.5251125 C62.0845308,6.5680785 62.5203288,6.6046275 62.9873748,6.6367125 C63.4544208,6.6685185 63.9644328,6.6740985 64.5171318,6.6526155 C64.9202868,6.6316905 65.3083758,6.5998845 65.6802828,6.5571975 C66.0516318,6.5145105 66.4182378,6.4615005 66.7798218,6.3976095 C67.0554738,5.3778645 67.3263828,4.4909235 67.5922698,3.7367865 C67.8575988,2.9829285 68.0967018,2.4570135 68.3092998,2.1593205 C68.3729118,2.0533005 68.5163178,1.9631835 68.7395178,1.8884115 C68.9624388,1.8144765 69.2015418,1.7609085 69.4565478,1.7291025 C69.7112748,1.6972965 69.9553998,1.6972965 70.1894808,1.7291025 C70.4230038,1.7609085 70.5929148,1.8404235 70.6992138,1.9679265 C70.8055128,2.1383955 70.8476418,2.5736355 70.8267168,3.2747625 C70.8055128,3.9758895 70.6883328,4.8681315 70.4762928,5.9514885 C71.3685348,5.9514885 72.1597788,5.9994765 72.8503038,6.0948945 C73.5405498,6.1905915 74.1300768,6.2971695 74.6188848,6.4135125 C75.1074138,6.5306925 75.5002458,6.6475935 75.7979388,6.7642155 C76.0953528,6.8811165 76.3182738,6.9609105 76.4672598,7.0030395 C76.6156878,7.0460055 76.6954818,7.1520255 76.7063628,7.3219365 C76.7166858,7.4921265 76.6848798,7.6673385 76.6106658,7.8478515 C76.5361728,8.0283645 76.4139708,8.1823725 76.2440598,8.3098755 C76.0741488,8.4370995 75.8827548,8.4797865 75.6704358,8.4370995 C75.4578378,8.4164535 75.2190138,8.3732085 74.9534058,8.3098755 C74.6877978,8.2459845 74.3691798,8.1932535 73.9975518,8.1505665 C73.6256448,8.1078795 73.1851038,8.0657505 72.6750918,8.0230635 C72.1650798,7.9803765 71.5702518,7.9591725 70.8906078,7.9591725 C70.7631048,7.9591725 70.6196988,7.9647525 70.4603898,7.9750755 C70.3010808,7.9862355 70.1361918,7.9909785 69.9662808,7.9909785 C69.8811858,8.3310795 69.8016708,8.6656005 69.7271778,8.9948205 C69.6526848,9.3245985 69.5522448,9.6694425 69.4247418,10.0304685 C69.1482528,10.8805815 68.8296348,11.8046295 68.4686088,12.8028915 C68.1499908,13.6742085 67.7674818,14.6724705 67.3213608,15.7985145 C66.8752398,16.9248375 66.3758298,18.1248165 65.8236888,19.3995675 C65.6961858,20.3130135 65.7120888,21.0085605 65.8713978,21.4867665 C66.0307068,21.9646935 66.2271228,22.3103745 66.4609248,22.5224145 C66.7368558,22.7564955 67.0769568,22.8839985 67.4806698,22.9049235 C67.7992878,22.9478895 68.1868188,22.8360105 68.6438208,22.5704025 C69.1005438,22.3047945 69.5728908,21.9490695 70.0619778,21.5026695 C70.5505068,21.0565485 71.0443368,20.5680195 71.5437468,20.0368035 C72.0425988,19.5061455 72.5049018,18.9852525 72.9300978,18.4752405 C73.3547358,17.9655075 73.7266428,17.5034835 74.0452608,17.0891685 C74.3641578,16.6748535 74.5870788,16.3830195 74.7145818,16.2128295" id="Fill-10" fill="#4739FF"></path>
                <path d="M79.0803459,12.7392237 C78.8253399,12.7392237 78.5226249,12.8667267 78.1722009,13.1217327 C77.8214979,13.3764597 77.4760959,13.7430657 77.1365529,14.2212717 C76.7961729,14.6989197 76.4775549,15.2837037 76.1804199,15.9739497 C75.8827269,16.6641957 75.6598059,17.4554397 75.5113779,18.3479607 C75.7661049,18.1565667 76.0420359,17.9604297 76.3397289,17.7581547 C76.6371429,17.5567167 76.9345569,17.3390967 77.2319709,17.1050157 C78.1454169,16.4041677 78.7826529,15.7881357 79.1442369,15.2566407 C79.5049839,14.7259827 79.7069799,14.2687017 79.7496669,13.8864717 C79.7917959,13.4830377 79.7496669,13.1909247 79.6221639,13.0101327 C79.4946609,12.8298987 79.3138689,12.7392237 79.0803459,12.7392237 M87.2383059,17.6468337 C86.6010699,18.5817627 85.8784599,19.4899077 85.0713129,20.3712687 C84.2638869,21.2534667 83.4087519,22.0394097 82.5061869,22.7296557 C81.6030639,23.4201807 80.6787369,23.9779017 79.7337639,24.4028187 C78.7879539,24.8274567 77.8694859,25.0400547 76.9769649,25.0400547 C76.5096399,25.0400547 76.0052079,24.9284547 75.4633899,24.7055337 C74.9215719,24.4823337 74.4277419,24.1374897 73.9816209,23.6698857 C73.5354999,23.2025607 73.1794959,22.5971307 72.9141669,21.8533167 C72.6485589,21.1097817 72.5690439,20.2072167 72.6750639,19.1445057 C72.7601589,18.2737467 73.0305099,17.3549997 73.4877909,16.3879857 C73.9442349,15.4215297 74.5072569,14.5348677 75.1765779,13.7271627 C75.8458989,12.9197367 76.5997569,12.2506947 77.4392679,11.7194787 C78.2782209,11.1885417 79.1224749,10.9226547 79.9725879,10.9226547 C80.7797349,10.9226547 81.3639609,11.1249297 81.7252659,11.5283637 C82.0862919,11.9320767 82.2456009,12.4314867 82.2031929,13.0260357 C82.1395809,13.6850337 81.9534879,14.2904637 81.6457509,14.8426047 C81.3374559,15.3953037 80.9708499,15.8941557 80.5462119,16.3402767 C80.1210159,16.7863977 79.6698729,17.1901107 79.1919459,17.5511367 C78.7140189,17.9127207 78.2623179,18.2419407 77.8374009,18.5390757 C77.3700759,18.8579727 76.9239549,19.1606877 76.4990379,19.4472207 C76.0741209,19.7340327 75.7024929,19.9946187 75.3835959,20.2281417 C75.4047999,20.7593577 75.5002179,21.2054787 75.6704079,21.5665047 C75.8403189,21.9280887 76.0529169,22.2196437 76.3079229,22.4428437 C76.5629289,22.6657647 76.8547629,22.8250737 77.1842619,22.9207707 C77.5132029,23.0164677 77.8480029,23.0641767 78.1881039,23.0641767 C78.9101559,23.0641767 79.6642929,22.8359547 80.4507939,22.3792317 C81.2364579,21.9225087 82.0064979,21.3703677 82.7609139,20.7219717 C83.5150509,20.0741337 84.2161779,19.3995117 84.8642949,18.6983847 C85.5121329,17.9975367 86.0486499,17.3918277 86.4735669,16.8820947 C86.6219949,16.7121837 86.7762819,16.6111857 86.9355909,16.5793797 C87.0951789,16.5472947 87.2224029,16.5687777 87.3180999,16.6429917 C87.4137969,16.7177637 87.4615059,16.8452667 87.4615059,17.0252217 C87.4615059,17.2062927 87.3867339,17.4133107 87.2383059,17.6468337" id="Fill-12" fill="#4739FF"></path>
                <path d="M90.2754999,12.638142 C90.6091839,12.34575 90.8962749,12.13929 91.0851579,12.005928 C91.4548329,11.745621 91.8337149,11.500938 92.2223619,11.271879 C92.7784089,10.943775 93.3280389,10.663101 93.8709729,10.429857 C94.4136279,10.197171 94.9431699,10.037583 95.4590409,9.951093 C95.9749119,9.865161 96.4589769,9.879669 96.9117939,9.99657 C97.2613809,10.086687 97.5278259,10.265526 97.7116869,10.531971 C97.8949899,10.798695 98.0096589,11.119266 98.0562519,11.493126 C98.1020079,11.866707 98.0757819,12.287997 97.9770159,12.756159 C97.8779709,13.224321 97.7342859,13.697505 97.5454029,14.175153 C97.9856649,13.828077 98.4638709,13.485465 98.9789049,13.146201 C99.4942179,12.807495 100.017622,12.520404 100.550791,12.28437 C101.082844,12.049173 101.614897,11.879262 102.146671,11.774637 C102.677887,11.67057 103.180087,11.679219 103.65355,11.801421 C104.209039,11.944827 104.593222,12.219642 104.806657,12.625587 C105.019813,13.031811 105.116905,13.506669 105.097654,14.050161 C105.077845,14.593653 104.965408,15.156675 104.760343,15.740064 C104.55472,16.323732 104.318965,16.87671 104.052241,17.400393 L101.928772,21.295512 C101.436616,22.265874 101.520037,22.835592 102.178756,23.005503 C102.692674,23.138307 103.322377,23.03703 104.066749,22.702788 C104.8114,22.368267 105.564421,21.937212 106.325812,21.409344 C107.087203,20.882034 107.817625,20.324871 108.517915,19.737018 C109.217647,19.149723 109.798246,18.685188 110.259433,18.343413 C110.420137,18.231534 110.569681,18.182151 110.708902,18.196101 C110.847565,18.21033 110.954422,18.265014 111.028357,18.360711 C111.102292,18.456687 111.123217,18.588096 111.091132,18.755496 C111.058768,18.922617 110.9494,19.113732 110.76247,19.328562 C110.164852,19.94292 109.455355,20.60973 108.633421,21.330108 C107.810929,22.050765 106.947145,22.699998 106.041232,23.277807 C105.13504,23.856174 104.214619,24.298947 103.27969,24.606126 C102.344761,24.913026 101.445265,24.955434 100.581202,24.732792 C100.292995,24.658299 100.018459,24.554511 99.7564779,24.421149 C99.4947759,24.287787 99.2665539,24.108111 99.0726489,23.882958 C98.8784649,23.656689 98.7451029,23.386896 98.6731209,23.071905 C98.6003019,22.757193 98.6201109,22.383891 98.7317109,21.951999 C98.8430319,21.519828 99.0168489,21.037995 99.2526039,20.5065 C99.4883589,19.975005 99.7536879,19.434303 100.049149,18.88551 C100.344052,18.336159 100.635328,17.802711 100.922977,17.284329 C101.209789,16.765947 101.46061,16.304202 101.675161,15.898815 C101.936584,15.395778 102.032002,14.981742 101.96281,14.656428 C101.892781,14.331393 101.683252,14.123538 101.333665,14.033421 C101.168776,13.991013 100.80775,14.051277 100.250308,14.214492 C99.6920289,14.378265 99.0391689,14.741523 98.2906119,15.305382 C97.6779279,15.76629 97.0300899,16.393761 96.3468189,17.188353 C96.0502419,17.533197 95.5982619,17.703666 95.1479559,17.638659 C94.2453909,17.507808 93.7443069,16.529634 94.1569479,15.71607 C94.2350679,15.561783 94.3117929,15.407775 94.3876809,15.25293 C94.7355939,14.542038 94.9811139,13.908708 95.1245199,13.353219 C95.2252389,12.962619 95.2271919,12.67776 95.1309369,12.4992 C95.0338449,12.320919 94.8625389,12.199554 94.6156239,12.135942 C94.4306469,12.087954 94.0952889,12.111669 93.6103869,12.205692 C93.1252059,12.299994 92.5381899,12.576483 91.8496179,13.035159 C90.7824429,13.745772 90.0955449,14.579145 89.6198499,15.108966 C87.8155569,17.118603 87.0508179,18.145602 85.9177989,19.322703 C85.7877849,19.457739 84.8380689,20.441493 84.8380689,20.441493 C84.7245159,20.455722 84.5880849,20.45349 84.4284969,20.434239 C84.2689089,20.414988 84.1313619,20.351934 84.0164139,20.245914 C83.9009079,20.139057 84.2895549,20.108646 84.2862069,19.866474 C84.2828589,19.624581 84.3930639,19.422585 84.6126369,18.996552 L89.5609809,13.34178 C89.8263099,13.04883 90.0729459,12.815586 90.2754999,12.638142" id="Fill-14" fill="#4739FF"></path>
                <g id="Group-18" transform="translate(107.973000, 10.704393)">
                    <mask id="mask-4" fill="white">
                        <use xlink:href="#path-3"></use>
                    </mask>
                    <g id="Clip-17"></g>
                    <path d="M6.6712806,2.0348307 C6.4162746,2.0348307 6.1135596,2.1623337 5.7631356,2.4173397 C5.4124326,2.6720667 5.0670306,3.0386727 4.7274876,3.5168787 C4.3871076,3.9945267 4.0684896,4.5793107 3.7713546,5.2695567 C3.4736616,5.9598027 3.2504616,6.7510467 3.1023126,7.6435677 C3.3570396,7.4521737 3.6329706,7.2560367 3.9306636,7.0537617 C4.2277986,6.8523237 4.5252126,6.6347037 4.8229056,6.4006227 C5.7360726,5.6997747 6.3735876,5.0837427 6.7351716,4.5522477 C7.0959186,4.0215897 7.2976356,3.5643087 7.3403226,3.1820787 C7.3827306,2.7786447 7.3403226,2.4865317 7.2130986,2.3057397 C7.0855956,2.1255057 6.9048036,2.0348307 6.6712806,2.0348307 M14.8292406,6.9424407 C14.1920046,7.8773697 13.4693946,8.7855147 12.6622476,9.6668757 C11.8548216,10.5490737 10.9996866,11.3350167 10.0971216,12.0252627 C9.1939986,12.7157877 8.2696716,13.2735087 7.3244196,13.6984257 C6.3788886,14.1230637 5.4604206,14.3356617 4.5678996,14.3356617 C4.1005746,14.3356617 3.5961426,14.2240617 3.0543246,14.0011407 C2.5125066,13.7779407 2.0186766,13.4330967 1.5725556,12.9654927 C1.1264346,12.4981677 0.7704306,11.8927377 0.5048226,11.1489237 C0.2394936,10.4053887 0.1599786,9.5028237 0.2659986,8.4401127 C0.3510936,7.5693537 0.6214446,6.6506067 1.0787256,5.6835927 C1.5351696,4.7171367 2.0981916,3.8304747 2.7675126,3.0227697 C3.4368336,2.2153437 4.1906916,1.5463017 5.0302026,1.0150857 C5.8691556,0.4841487 6.7134096,0.2182617 7.5635226,0.2182617 C8.3706696,0.2182617 8.9548956,0.4205367 9.3162006,0.8239707 C9.6772266,1.2276837 9.8365356,1.7270937 9.7941276,2.3216427 C9.7305156,2.9806407 9.5444226,3.5860707 9.2366856,4.1382117 C8.9283906,4.6909107 8.5617846,5.1897627 8.1371466,5.6358837 C7.7119506,6.0820047 7.2608076,6.4857177 6.7828806,6.8467437 C6.3049536,7.2083277 5.8532526,7.5375477 5.4283356,7.8346827 C4.9610106,8.1535797 4.5148896,8.4562947 4.0899726,8.7428277 C3.6647766,9.0296397 3.2934276,9.2902257 2.9745306,9.5237487 C2.9957346,10.0549647 3.0911526,10.5010857 3.2613426,10.8621117 C3.4312536,11.2236957 3.6438516,11.5152507 3.8988576,11.7384507 C4.1538636,11.9613717 4.4454186,12.1206807 4.7751966,12.2163777 C5.1041376,12.3120747 5.4389376,12.3597837 5.7790386,12.3597837 C6.5010906,12.3597837 7.2552276,12.1315617 8.0417286,11.6748387 C8.8273926,11.2181157 9.5974326,10.6659747 10.3518486,10.0175787 C11.1059856,9.3697407 11.8068336,8.6951187 12.4552296,7.9939917 C13.1030676,7.2931437 13.6393056,6.6874347 14.0645016,6.1777017 C14.2129296,6.0077907 14.3672166,5.9067927 14.5265256,5.8749867 C14.6858346,5.8429017 14.8133376,5.8643847 14.9090346,5.9385987 C15.0047316,6.0133707 15.0524406,6.1408737 15.0524406,6.3208287 C15.0524406,6.5018997 14.9776686,6.7089177 14.8292406,6.9424407" id="Fill-16" fill="#4739FF" mask="url(#mask-4)"></path>
                </g>
                <path d="M86.7250575,24.6144402 C86.9284485,24.8596812 87.2001945,25.1808102 87.6633345,25.4458602 C88.1914815,25.7477382 88.6724775,25.8071652 89.0834445,25.8540372 C89.6364225,25.9170912 90.2664045,25.8838902 90.9731115,25.7547132 C92.2749255,25.5089142 93.3948315,25.1311482 94.3331085,24.6208572 C95.1938235,24.1532532 95.9094585,23.6468682 96.4797345,23.1028182 C96.5807325,23.0062842 96.7113045,22.9476942 96.8505255,22.9351392 C97.4107575,22.8843612 97.7455575,23.5458702 97.3716975,23.9666022 C97.2400095,24.1144722 97.1024625,24.2598312 96.9590565,24.4024002 C96.4574145,24.9001362 95.9186655,25.3431882 95.3433675,25.7309982 C94.7677905,26.1185292 94.1729625,26.4463542 93.5583255,26.7147522 C92.9442465,26.9831502 92.3441175,27.1700802 91.7582175,27.2755422 C90.7379145,27.4594032 89.8308855,27.4767012 89.0365725,27.3271572 C88.2422595,27.1773342 87.5668005,26.9092152 87.0090795,26.5222422 C86.4516375,26.1352692 86.0150025,25.6525992 85.6988955,25.0742322 C85.3830675,24.4961442 85.1894415,23.8812282 85.1177385,23.2300422 C85.1174595,23.2261362 85.1171805,23.2227882 85.1169015,23.2191612 C85.1071365,23.0930532 85.1509395,22.9861962 85.2234795,22.9089132 C85.4291025,22.6904562 85.7976615,22.7897802 85.8891735,23.0751972 C86.1291135,23.8237542 86.4893025,24.3301392 86.7250575,24.6144402" id="Fill-19" fill="#00E98B"></path>
            </g>
        </g>
    </g>
</svg>